<!-- <svg stroke="currentColor" fill="#9e9e9e" stroke-width="0" viewBox="0 0 640 512" height="1em" width="1em" xmlns="http://www.w3.org/2000/svg"><path d="M524.531,69.836a1.5,1.5,0,0,0-.764-.7A485.065,485.065,0,0,0,404.081,32.03a1.816,1.816,0,0,0-1.923.91,337.461,337.461,0,0,0-14.9,30.6,447.848,447.848,0,0,0-134.426,0,309.541,309.541,0,0,0-15.135-30.6,1.89,1.89,0,0,0-1.924-.91A483.689,483.689,0,0,0,116.085,69.137a1.712,1.712,0,0,0-.788.676C39.068,183.651,18.186,294.69,28.43,404.354a2.016,2.016,0,0,0,.765,1.375A487.666,487.666,0,0,0,176.02,479.918a1.9,1.9,0,0,0,2.063-.676A348.2,348.2,0,0,0,208.12,430.4a1.86,1.86,0,0,0-1.019-2.588,321.173,321.173,0,0,1-45.868-21.853,1.885,1.885,0,0,1-.185-3.126c3.082-2.309,6.166-4.711,9.109-7.137a1.819,1.819,0,0,1,1.9-.256c96.229,43.917,200.41,43.917,295.5,0a1.812,1.812,0,0,1,1.924.233c2.944,2.426,6.027,4.851,9.132,7.16a1.884,1.884,0,0,1-.162,3.126,301.407,301.407,0,0,1-45.89,21.83,1.875,1.875,0,0,0-1,2.611,391.055,391.055,0,0,0,30.014,48.815,1.864,1.864,0,0,0,2.063.7A486.048,486.048,0,0,0,610.7,405.729a1.882,1.882,0,0,0,.765-1.352C623.729,277.594,590.933,167.465,524.531,69.836ZM222.491,337.58c-28.972,0-52.844-26.587-52.844-59.239S193.056,219.1,222.491,219.1c29.665,0,53.306,26.82,52.843,59.239C275.334,310.993,251.924,337.58,222.491,337.58Zm195.38,0c-28.971,0-52.843-26.587-52.843-59.239S388.437,219.1,417.871,219.1c29.667,0,53.307,26.82,52.844,59.239C470.715,310.993,447.538,337.58,417.871,337.58Z"></path></svg> -->

<svg width="32" height="32" viewBox="0 0 32 32" fill="none" xmlns="http://www.w3.org/2000/svg">
<path fill-rule="evenodd" clip-rule="evenodd" d="M20.5753 22.4718C21.2 23.263 21.9496 24.1584 21.9496 24.1584C26.5516 24.0127 28.3215 20.9933 28.3215 20.9933C28.3215 14.2882 25.323 8.85336 25.323 8.85336C22.3244 6.60445 19.4717 6.66692 19.4717 6.66692L19.1801 7.00009C22.7201 8.0829 24.3651 9.64464 24.3651 9.64464C22.1995 8.45772 20.0755 7.87467 18.0973 7.64561C16.5981 7.47903 15.1613 7.52067 13.891 7.68726C13.782 7.68726 13.6888 7.70313 13.5837 7.72101C13.5684 7.72361 13.5529 7.72626 13.537 7.72891C12.8082 7.79138 11.0383 8.06208 8.81017 9.04077C8.03971 9.39476 7.5816 9.64464 7.5816 9.64464C7.5816 9.64464 9.30992 7.99961 13.0581 6.9168L12.8499 6.66692C12.8499 6.66692 9.99709 6.60445 6.99855 8.85336C6.99855 8.85336 4 14.2882 4 20.9933C4 20.9933 5.74915 24.0127 10.3511 24.1584C10.3511 24.1584 11.1215 23.2214 11.7462 22.4301C9.10169 21.6388 8.10218 19.973 8.10218 19.973C8.10218 19.973 8.31041 20.1187 8.68523 20.327C8.70605 20.3478 8.72687 20.3686 8.76852 20.3894C8.79976 20.4103 8.83099 20.4259 8.86222 20.4415C8.89346 20.4571 8.92469 20.4727 8.95593 20.4935C9.47651 20.7851 9.99709 21.0141 10.476 21.2015C11.3298 21.5347 12.3501 21.8679 13.537 22.0969C15.0988 22.3885 16.9312 22.4926 18.9303 22.1178C19.909 21.9512 20.9085 21.6596 21.9496 21.2224C22.6784 20.9517 23.4905 20.556 24.3443 19.9938C24.3443 19.9938 23.3031 21.7013 20.5753 22.4718ZM10.1429 16.7454C10.1429 15.4751 11.0799 14.434 12.2668 14.434C13.4537 14.434 14.4116 15.4751 14.3908 16.7454C14.3908 18.0156 13.4537 19.0567 12.2668 19.0567C11.1007 19.0567 10.1429 18.0156 10.1429 16.7454ZM17.7433 16.7454C17.7433 15.4751 18.6804 14.434 19.8673 14.434C21.0542 14.434 21.9913 15.4751 21.9913 16.7454C21.9913 18.0156 21.0542 19.0567 19.8673 19.0567C18.7012 19.0567 17.7433 18.0156 17.7433 16.7454Z" fill="black"/>
</svg>
