<!-- <svg stroke="currentColor" fill="#9e9e9e" stroke-width="0" viewBox="0 0 384 512" height="1em" width="1em" xmlns="http://www.w3.org/2000/svg"><path d="M224 136V0H24C10.7 0 0 10.7 0 24v464c0 13.3 10.7 24 24 24h336c13.3 0 24-10.7 24-24V160H248c-13.2 0-24-10.8-24-24zM64 72c0-4.42 3.58-8 8-8h80c4.42 0 8 3.58 8 8v16c0 4.42-3.58 8-8 8H72c-4.42 0-8-3.58-8-8V72zm0 64c0-4.42 3.58-8 8-8h80c4.42 0 8 3.58 8 8v16c0 4.42-3.58 8-8 8H72c-4.42 0-8-3.58-8-8v-16zm192.81 248H304c8.84 0 16 7.16 16 16s-7.16 16-16 16h-47.19c-16.45 0-31.27-9.14-38.64-23.86-2.95-5.92-8.09-6.52-10.17-6.52s-7.22.59-10.02 6.19l-7.67 15.34a15.986 15.986 0 0 1-14.31 8.84c-.38 0-.75-.02-1.14-.05-6.45-.45-12-4.75-14.03-10.89L144 354.59l-10.61 31.88c-5.89 17.66-22.38 29.53-41 29.53H80c-8.84 0-16-7.16-16-16s7.16-16 16-16h12.39c4.83 0 9.11-3.08 10.64-7.66l18.19-54.64c3.3-9.81 12.44-16.41 22.78-16.41s19.48 6.59 22.77 16.41l13.88 41.64c19.77-16.19 54.05-9.7 66 14.16 2.02 4.06 5.96 6.5 10.16 6.5zM377 105L279.1 7c-4.5-4.5-10.6-7-17-7H256v128h128v-6.1c0-6.3-2.5-12.4-7-16.9z"></path></svg> -->
<svg width="32" height="32" viewBox="0 0 32 32" fill="none" xmlns="http://www.w3.org/2000/svg">
<path fill-rule="evenodd" clip-rule="evenodd" d="M16.115 4C9.4031 4 3.96643 9.43667 3.96643 16.1486C3.96643 21.5182 7.44918 26.0674 12.2743 27.6782C12.8784 27.7901 13.1021 27.4172 13.1021 27.0891C13.1021 26.7982 13.0947 26.0375 13.0872 25.0233C9.70886 25.7541 8.99292 23.3975 8.99292 23.3975C8.44105 21.9954 7.64308 21.6151 7.64308 21.6151C6.53934 20.8619 7.72511 20.8768 7.72511 20.8768C8.94072 20.9663 9.58954 22.1297 9.58954 22.1297C10.6709 23.9866 12.4309 23.4497 13.1245 23.1365C13.2364 22.3534 13.5496 21.8165 13.8926 21.5107C11.2004 21.2124 8.36648 20.1683 8.36648 15.5147C8.36648 14.1872 8.83631 13.1059 9.61937 12.2557C9.49259 11.9425 9.07496 10.7119 9.73124 9.04141C9.73124 9.04141 10.7529 8.71327 13.0723 10.2868C14.0418 10.0184 15.0784 9.88413 16.115 9.87667C17.1442 9.88413 18.1883 10.0184 19.1578 10.2868C21.4771 8.71327 22.4988 9.04141 22.4988 9.04141C23.1626 10.7119 22.7449 11.9499 22.6182 12.2557C23.3938 13.1059 23.8636 14.1872 23.8636 15.5147C23.8636 20.1832 21.0222 21.2049 18.3151 21.5107C18.7476 21.8836 19.1429 22.6293 19.1429 23.7629C19.1429 25.3887 19.1279 26.6938 19.1279 27.0965C19.1279 27.4247 19.3442 27.7975 19.9632 27.6782C24.7883 26.0674 28.2636 21.5181 28.2636 16.1561C28.2636 9.43667 22.827 4 16.115 4Z" fill="black"/>
</svg>
