<!-- <svg stroke="currentColor" fill="#9e9e9e" stroke-width="0" viewBox="0 0 512 512" height="1em" width="1em" xmlns="http://www.w3.org/2000/svg"><path d="M459.37 151.716c.325 4.548.325 9.097.325 13.645 0 138.72-105.583 298.558-298.558 298.558-59.452 0-114.68-17.219-161.137-47.106 8.447.974 16.568 1.299 25.34 1.299 49.055 0 94.213-16.568 130.274-44.832-46.132-.975-84.792-31.188-98.112-72.772 6.498.974 12.995 1.624 19.818 1.624 9.421 0 18.843-1.3 27.614-3.573-48.081-9.747-84.143-51.98-84.143-102.985v-1.299c13.969 7.797 30.214 12.67 47.431 13.319-28.264-18.843-46.781-51.005-46.781-87.391 0-19.492 5.197-37.36 14.294-52.954 51.655 63.675 129.3 105.258 216.365 109.807-1.624-7.797-2.599-15.918-2.599-24.04 0-57.828 46.782-104.934 104.934-104.934 30.213 0 57.502 12.67 76.67 33.137 23.715-4.548 46.456-13.32 66.599-25.34-7.798 24.366-24.366 44.833-46.132 57.827 21.117-2.273 41.584-8.122 60.426-16.243-14.292 20.791-32.161 39.308-52.628 54.253z"></path></svg> -->
<svg width="32" height="32" viewBox="0 0 32 32" fill="none" xmlns="http://www.w3.org/2000/svg">
<path d="M26.6667 9.60729C25.8512 9.97426 24.9677 10.2189 24.0435 10.3276C24.9813 9.7568 25.7016 8.87333 26.055 7.79959C25.1716 8.31607 24.193 8.69664 23.16 8.90052C22.3309 8.03065 21.1484 7.47339 19.83 7.47339C17.3156 7.47339 15.2768 9.51214 15.2768 12.0266C15.2768 12.38 15.3176 12.7334 15.3991 13.0596C11.5935 12.8829 8.2363 11.0616 5.99367 8.30248C5.59951 8.98207 5.38204 9.7568 5.38204 10.5995C5.38204 12.1761 6.18395 13.5761 7.40721 14.3916C6.65966 14.3644 5.95289 14.1605 5.34127 13.8207C5.34127 13.8343 5.34127 13.8615 5.34127 13.8751C5.34127 16.0905 6.90431 17.939 8.99744 18.3468C8.61687 18.4555 8.20912 18.5099 7.80137 18.5099C7.50235 18.5099 7.21692 18.4827 6.94509 18.4283C7.52953 20.236 9.2149 21.5544 11.1993 21.5952C9.63625 22.8184 7.67904 23.5524 5.53155 23.5524C5.16457 23.5524 4.7976 23.5252 4.44421 23.4844C6.45579 24.7756 8.86152 25.5368 11.4304 25.5368C19.8164 25.5368 24.4104 18.5914 24.4104 12.5567C24.4104 12.3528 24.4104 12.1625 24.3968 11.9722C25.2803 11.3334 26.055 10.5315 26.6667 9.60729Z" fill="black"/>
</svg>
